<svg version="1.1" id="Layer_1" xmlns="http://www.w3.org/2000/svg" xmlns:xlink="http://www.w3.org/1999/xlink" x="0px" y="0px" viewBox="0 0 32 32" style="enable-background:new 0 0 32 32;" xml:space="preserve">
    <title>Instagram icon</title>
    <g transform="translate(8.000000, 8.000000)">
        <path d="M8,1.4c2.1,0,2.4,0,3.2,0c2.2,0.1,3.2,1.1,3.3,3.3c0,0.8,0,1.1,0,3.2s0,2.4,0,3.2
            c-0.1,2.1-1.1,3.2-3.3,3.3c-0.8,0-1.1,0-3.2,0s-2.4,0-3.2,0c-2.2-0.1-3.2-1.1-3.3-3.3c0-0.8,0-1.1,0-3.2s0-2.4,0-3.2
            c0.1-2.2,1.1-3.2,3.3-3.3C5.6,1.5,5.9,1.4,8,1.4L8,1.4z M8,0C5.8,0,5.6,0,4.7,0C1.8,0.2,0.2,1.8,0,4.7C0,5.6,0,5.8,0,8
            s0,2.4,0,3.3c0.1,2.9,1.7,4.5,4.7,4.7c0.9,0,1.1,0,3.3,0s2.4,0,3.3,0c2.9-0.1,4.5-1.7,4.7-4.7c0-0.9,0-1.1,0-3.3s0-2.4,0-3.3
            c-0.1-2.9-1.7-4.5-4.7-4.7C10.4,0,10.2,0,8,0z M8,3.9C5.7,3.9,3.9,5.7,3.9,8s1.8,4.1,4.1,4.1s4.1-1.8,4.1-4.1S10.3,3.9,8,3.9z
                M8,10.7c-1.5,0-2.7-1.2-2.7-2.7S6.5,5.3,8,5.3s2.7,1.2,2.7,2.7S9.5,10.7,8,10.7z M12.3,2.8c-0.5,0-1,0.4-1,1s0.4,1,1,1
            c0.5,0,1-0.4,1-1S12.8,2.8,12.3,2.8z"/>
    </g>
</svg>